<svg width="20" height="20" viewBox="0 0 20 20" fill="none" xmlns="http://www.w3.org/2000/svg">
<g clip-path="url(#clip0)">
<path d="M13.8115 6.89554L12.2459 6.83812L11.9065 16.107L13.472 16.1642L13.8115 6.89554Z" fill="black"/>
<path d="M10.7833 6.86684H9.21671V16.1358H10.7833V6.86684Z" fill="black"/>
<path d="M8.09319 16.1068L7.75378 6.83784L6.18823 6.89531L6.52769 16.1642L8.09319 16.1068Z" fill="black"/>
<path d="M0.678864 3.00261V4.56917H2.31125L3.60625 19.2854C3.64175 19.6898 3.98043 20 4.3864 20H15.5872C15.9932 20 16.3321 19.6896 16.3673 19.2851L17.6624 4.56917H19.3211V3.00261H0.678864ZM14.8697 18.4334H5.10367L3.88382 4.56917H16.0898L14.8697 18.4334Z" fill="black"/>
<path d="M12.5587 0H7.44124C6.7214 0 6.13577 0.585625 6.13577 1.30547V3.7859H7.70233V1.56656H12.2976V3.7859H13.8642V1.30547C13.8642 0.585625 13.2786 0 12.5587 0Z" fill="black"/>
</g>
<defs>
<clipPath id="clip0">
<rect width="20" height="20" fill="white"/>
</clipPath>
</defs>
</svg>
